<svg width="754" height="123" viewBox="0 0 754 123" fill="none" xmlns="http://www.w3.org/2000/svg">
<path d="M0 0H220.541V65.3999H8.71518V122.085H0V56.6847H211.826V8.71509H0V0Z" fill="white"/>
<path d="M496.036 65.3999V122.085H487.321V56.6847H699.148V8.71509H487.321V0H707.863V65.3999H496.036Z" fill="white"/>
<path d="M332.991 0V113.369H220.541V122.085H342.19V8.71509H454.64V0H332.991Z" fill="white"/>
<path d="M730.982 109.206H726.261V107.559H737.639V109.206H732.919V122.109H730.982V109.206Z" fill="white"/>
<path d="M745.386 122.109L741.392 110.295V122.109H739.455V107.559H742.118L746.233 119.93L750.47 107.559H753.133V122.109H751.196V110.295L747.323 122.109H745.386Z" fill="white"/>
</svg>
